<svg data-v-0dd9719b="" version="1.0" xmlns="http://www.w3.org/2000/svg" xmlns:xlink="http://www.w3.org/1999/xlink" width="100%" height="100%" viewBox="0 0 340.000000 250.000000" preserveAspectRatio="xMidYMid meet" color-interpolation-filters="sRGB" style="margin: auto;"> <rect data-v-0dd9719b="" x="0" y="0" width="100%" height="100%" fill="#fff" fill-opacity="0" class="background"></rect> <rect data-v-0dd9719b="" x="0" y="0" width="100%" height="100%" fill="url(#watermark)" fill-opacity="1" class="watermarklayer"></rect> <g data-v-0dd9719b="" fill="#333" class="icon-text-wrapper icon-svg-group iconsvg" transform="translate(80.3949966430664,84.0577392578125)"><g class="iconsvg-imagesvg" transform="matrix(1,0,0,1,59.605003356933594,0)" opacity="1"><g><rect fill="#333" fill-opacity="0" stroke-width="2" x="0" y="0" width="60" height="54.77451159393829" class="image-rect"></rect> <svg x="0" y="0" width="60" height="54.77451159393829" filtersec="colorsb2739555032" class="image-svg-svg primary" style="overflow: visible;"><svg xmlns="http://www.w3.org/2000/svg" viewBox="0 0 109.53999328613281 99.9996566772461"><title>资源 249</title><path d="M0 94.21l31.88-21.85S42.27 52.65 50.86 39l3.59-39S15.76 44.77 0 94.21z" fill="#333"></path><path d="M109.31 95.39L74.54 78.5s-22.26.72-38.34 0L.5 94.7s58.05 11.45 108.81.69z" fill="#ae2d2c"></path><path d="M54.6.53l3.22 38.52s12 18.77 19.56 33l32.16 22.43S89.76 38.68 54.6.53z" fill="#333"></path></svg></svg> <!----></g></g> <g transform="translate(0,61.774513244628906)"><g data-gra="path-name" fill-rule="" class="tp-name iconsvg-namesvg" transform="matrix(1,0,0,1,0,0)" opacity="1"><g transform="scale(1)"><g><path d="M14.37 0L10.2 0 9.5-2.65 4.91-2.65 4.19 0 0 0 4.61-14.19 9.7-14.19 14.37 0ZM5.7-5.78L8.71-5.78 8.1-8.1Q7.89-8.87 7.58-10.1 7.28-11.33 7.18-11.86L7.18-11.86Q7.09-11.36 6.84-10.23 6.58-9.1 5.7-5.78L5.7-5.78ZM19.45-15.04L19.45 0 15.67 0 15.67-15.04 19.45-15.04ZM25.87-10.95L25.87 0 22.09 0 22.09-10.95 25.87-10.95ZM22-13.67L22-13.67Q22-14.52 22.47-14.94 22.94-15.36 24-15.36L24-15.36Q25.05-15.36 25.53-14.93 26.02-14.51 26.02-13.67L26.02-13.67Q26.02-12.01 24-12.01L24-12.01Q22-12.01 22-13.67ZM35.02-10.95L38.84-10.95 38.84-9.12 37.34-8.57Q37.65-8.01 37.65-7.27L37.65-7.27Q37.65-5.5 36.41-4.52 35.17-3.55 32.7-3.55L32.7-3.55Q32.09-3.55 31.74-3.62L31.74-3.62Q31.6-3.37 31.6-3.15L31.6-3.15Q31.6-2.87 32.06-2.72 32.51-2.57 33.24-2.57L33.24-2.57 35.06-2.57Q38.74-2.57 38.74 0.53L38.74 0.53Q38.74 2.53 37.04 3.64 35.33 4.75 32.25 4.75L32.25 4.75Q29.92 4.75 28.66 3.98 27.4 3.2 27.4 1.74L27.4 1.74Q27.4-0.22 29.83-0.79L29.83-0.79Q29.33-1.01 28.96-1.48 28.59-1.95 28.59-2.42L28.59-2.42Q28.59-2.93 28.87-3.32 29.15-3.71 30.04-4.25L30.04-4.25Q29.19-4.63 28.7-5.43 28.21-6.23 28.21-7.38L28.21-7.38Q28.21-9.17 29.43-10.16 30.64-11.14 32.91-11.14L32.91-11.14Q33.21-11.14 33.94-11.07 34.67-11.01 35.02-10.95L35.02-10.95ZM30.59 1.36L30.59 1.36Q30.59 1.83 31.09 2.11 31.59 2.4 32.43 2.4L32.43 2.4Q33.8 2.4 34.63 2.05 35.46 1.71 35.46 1.17L35.46 1.17Q35.46 0.73 34.95 0.56 34.45 0.38 33.51 0.38L33.51 0.38 32.04 0.38Q31.43 0.38 31.01 0.66 30.59 0.95 30.59 1.36ZM31.77-7.36L31.77-7.36Q31.77-5.68 32.94-5.68L32.94-5.68Q33.49-5.68 33.78-6.1 34.07-6.51 34.07-7.34L34.07-7.34Q34.07-9.05 32.94-9.05L32.94-9.05Q31.77-9.05 31.77-7.36ZM51.19 0L47.41 0 47.41-5.97Q47.41-7.06 47.1-7.62 46.78-8.18 46.09-8.18L46.09-8.18Q45.13-8.18 44.71-7.41 44.28-6.65 44.28-4.79L44.28-4.79 44.28 0 40.5 0 40.5-10.95 43.35-10.95 43.83-9.6 44.05-9.6Q44.53-10.37 45.39-10.76 46.24-11.14 47.35-11.14L47.35-11.14Q49.17-11.14 50.18-10.09 51.19-9.04 51.19-7.12L51.19-7.12 51.19 0ZM62.96 0L59.12 0 59.12-14.13 62.96-14.13 62.96 0ZM76.48 0L72.7 0 72.7-5.97Q72.7-7.06 72.39-7.62 72.07-8.18 71.38-8.18L71.38-8.18Q70.42-8.18 70-7.41 69.57-6.65 69.57-4.79L69.57-4.79 69.57 0 65.79 0 65.79-10.95 68.64-10.95 69.12-9.6 69.34-9.6Q69.82-10.37 70.68-10.76 71.53-11.14 72.64-11.14L72.64-11.14Q74.46-11.14 75.47-10.09 76.48-9.04 76.48-7.12L76.48-7.12 76.48 0ZM89.74 0L85.96 0 85.96-5.97Q85.96-7.06 85.65-7.62 85.33-8.18 84.64-8.18L84.64-8.18Q83.68-8.18 83.25-7.41 82.83-6.65 82.83-4.79L82.83-4.79 82.83 0 79.05 0 79.05-10.95 81.9-10.95 82.38-9.6 82.6-9.6Q83.08-10.37 83.94-10.76 84.79-11.14 85.9-11.14L85.9-11.14Q87.72-11.14 88.73-10.09 89.74-9.04 89.74-7.12L89.74-7.12 89.74 0ZM102.77-5.5L102.77-5.5Q102.77-2.81 101.32-1.31 99.88 0.19 97.28 0.19L97.28 0.19Q94.78 0.19 93.31-1.34 91.84-2.88 91.84-5.5L91.84-5.5Q91.84-8.18 93.28-9.66 94.73-11.14 97.33-11.14L97.33-11.14Q98.95-11.14 100.19-10.46 101.42-9.77 102.09-8.49 102.77-7.21 102.77-5.5ZM95.67-5.5L95.67-5.5Q95.67-4.09 96.05-3.35 96.43-2.61 97.32-2.61L97.32-2.61Q98.19-2.61 98.56-3.35 98.92-4.09 98.92-5.5L98.92-5.5Q98.92-6.9 98.55-7.62 98.19-8.33 97.3-8.33L97.3-8.33Q96.43-8.33 96.05-7.62 95.67-6.91 95.67-5.5ZM111.53 0L107.79 0 103.62-10.95 107.56-10.95 109.41-4.47Q109.42-4.43 109.45-4.31 109.48-4.19 109.51-4.03 109.54-3.88 109.56-3.7 109.59-3.52 109.59-3.36L109.59-3.36 109.66-3.36Q109.66-3.87 109.83-4.46L109.83-4.46 111.77-10.95 115.71-10.95 111.53 0ZM126.77 0L124.15 0 123.43-1.45 123.35-1.45Q122.59-0.5 121.79-0.15 121 0.19 119.75 0.19L119.75 0.19Q118.2 0.19 117.31-0.73 116.42-1.66 116.42-3.34L116.42-3.34Q116.42-5.09 117.64-5.95 118.86-6.8 121.17-6.91L121.17-6.91 122.99-6.97 122.99-7.12Q122.99-8.48 121.66-8.48L121.66-8.48Q120.46-8.48 118.61-7.66L118.61-7.66 117.52-10.16Q119.44-11.14 122.35-11.14L122.35-11.14Q124.46-11.14 125.62-10.1 126.77-9.06 126.77-7.18L126.77-7.18 126.77 0ZM121.35-2.47L121.35-2.47Q122.04-2.47 122.52-2.91 123.01-3.34 123.01-4.04L123.01-4.04 123.01-4.89 122.14-4.85Q120.28-4.78 120.28-3.48L120.28-3.48Q120.28-2.47 121.35-2.47ZM134.71-2.79L134.71-2.79Q135.47-2.79 136.53-3.17L136.53-3.17 136.53-0.42Q135.77-0.09 135.08 0.05 134.39 0.19 133.46 0.19L133.46 0.19Q131.55 0.19 130.71-0.74 129.87-1.67 129.87-3.6L129.87-3.6 129.87-8.12 128.55-8.12 128.55-9.65 130.23-10.84 131.21-13.14 133.68-13.14 133.68-10.95 136.37-10.95 136.37-8.12 133.68-8.12 133.68-3.86Q133.68-2.79 134.71-2.79ZM142.24-10.95L142.24 0 138.46 0 138.46-10.95 142.24-10.95ZM138.37-13.67L138.37-13.67Q138.37-14.52 138.84-14.94 139.31-15.36 140.37-15.36L140.37-15.36Q141.42-15.36 141.9-14.93 142.39-14.51 142.39-13.67L142.39-13.67Q142.39-12.01 140.37-12.01L140.37-12.01Q138.37-12.01 138.37-13.67ZM155.34-5.5L155.34-5.5Q155.34-2.81 153.89-1.31 152.45 0.19 149.85 0.19L149.85 0.19Q147.36 0.19 145.88-1.34 144.41-2.88 144.41-5.5L144.41-5.5Q144.41-8.18 145.85-9.66 147.3-11.14 149.91-11.14L149.91-11.14Q151.52-11.14 152.76-10.46 153.99-9.77 154.67-8.49 155.34-7.21 155.34-5.5ZM148.24-5.5L148.24-5.5Q148.24-4.09 148.62-3.35 149-2.61 149.89-2.61L149.89-2.61Q150.77-2.61 151.13-3.35 151.49-4.09 151.49-5.5L151.49-5.5Q151.49-6.9 151.12-7.62 150.76-8.33 149.87-8.33L149.87-8.33Q149-8.33 148.62-7.62 148.24-6.91 148.24-5.5ZM168.18 0L164.4 0 164.4-5.97Q164.4-7.06 164.09-7.62 163.77-8.18 163.08-8.18L163.08-8.18Q162.12-8.18 161.7-7.41 161.27-6.65 161.27-4.79L161.27-4.79 161.27 0 157.49 0 157.49-10.95 160.34-10.95 160.82-9.6 161.04-9.6Q161.52-10.37 162.38-10.76 163.23-11.14 164.34-11.14L164.34-11.14Q166.16-11.14 167.17-10.09 168.18-9.04 168.18-7.12L168.18-7.12 168.18 0ZM179.21-3.36L179.21-3.36Q179.21-1.6 178.01-0.71 176.81 0.19 174.57 0.19L174.57 0.19Q173.35 0.19 172.45 0.06 171.55-0.07 170.62-0.42L170.62-0.42 170.62-3.44Q171.5-3.05 172.54-2.8 173.59-2.55 174.41-2.55L174.41-2.55Q175.64-2.55 175.64-3.11L175.64-3.11Q175.64-3.4 175.3-3.63 174.96-3.86 173.3-4.51L173.3-4.51Q171.8-5.13 171.2-5.92 170.6-6.71 170.6-7.91L170.6-7.91Q170.6-9.44 171.78-10.29 172.96-11.14 175.11-11.14L175.11-11.14Q176.19-11.14 177.14-10.91 178.1-10.67 179.12-10.21L179.12-10.21 178.1-7.78Q177.34-8.12 176.5-8.35 175.66-8.59 175.13-8.59L175.13-8.59Q174.2-8.59 174.2-8.14L174.2-8.14Q174.2-7.86 174.53-7.66 174.85-7.46 176.4-6.85L176.4-6.85Q177.55-6.38 178.11-5.92 178.68-5.47 178.94-4.86 179.21-4.24 179.21-3.36Z" transform="translate(0, 15.359999656677246)"></path></g> <!----> <!----> <!----> <!----> <!----> <!----> <!----></g></g> <!----></g></g><defs v-gra="od"></defs></svg>